<?xml version="1.0" encoding="utf-8"?>
<!-- Generator: Adobe Illustrator 28.0.0, SVG Export Plug-In . SVG Version: 6.00 Build 0)  -->
<svg version="1.1" id="Слой_1" xmlns="http://www.w3.org/2000/svg" xmlns:xlink="http://www.w3.org/1999/xlink" x="0px" y="0px"
	 viewBox="0 0 100 100" style="enable-background:new 0 0 100 100;" xml:space="preserve">
<style type="text/css">
	.st0{fill:#FFFFFF;}
</style>
<g>
	<path class="st0" d="M48.55,74.5c-0.58,0-1.05-0.47-1.05-1.05V56.55c0-0.58,0.47-1.05,1.05-1.05h9.89c0.58,0,1.05,0.47,1.05,1.05
		v16.89c0,0.58-0.47,1.05-1.05,1.05H48.55z"/>
	<path d="M58.45,56c0.31,0,0.55,0.25,0.55,0.55v16.89c0,0.31-0.25,0.55-0.55,0.55h-9.89C48.25,74,48,73.75,48,73.45V56.55
		c0-0.31,0.25-0.55,0.55-0.55H58.45 M58.45,55h-9.89C47.7,55,47,55.7,47,56.55v16.89C47,74.3,47.7,75,48.55,75h9.89
		C59.3,75,60,74.3,60,73.45V56.55C60,55.7,59.3,55,58.45,55L58.45,55z"/>
</g>
<g>
	<path class="st0" d="M55.5,58h-4c-0.28,0-0.5-0.22-0.5-0.5l0,0c0-0.28,0.22-0.5,0.5-0.5h4c0.28,0,0.5,0.22,0.5,0.5l0,0
		C56,57.78,55.78,58,55.5,58z"/>
	<path d="M55.5,57h-4c-0.28,0-0.5,0.22-0.5,0.5s0.22,0.5,0.5,0.5h4c0.28,0,0.5-0.22,0.5-0.5S55.78,57,55.5,57L55.5,57z"/>
</g>
<g>
	<path class="st0" d="M53.5,73h-2c-0.28,0-0.5-0.22-0.5-0.5l0,0c0-0.28,0.22-0.5,0.5-0.5h2c0.28,0,0.5,0.22,0.5,0.5l0,0
		C54,72.78,53.78,73,53.5,73z"/>
	<path d="M53.5,72h-2c-0.28,0-0.5,0.22-0.5,0.5c0,0.28,0.22,0.5,0.5,0.5h2c0.28,0,0.5-0.22,0.5-0.5C54,72.22,53.78,72,53.5,72
		L53.5,72z"/>
</g>
<g>
	<path class="st0" d="M55.5,73L55.5,73c-0.28,0-0.5-0.22-0.5-0.5l0,0c0-0.28,0.22-0.5,0.5-0.5l0,0c0.28,0,0.5,0.22,0.5,0.5l0,0
		C56,72.78,55.78,73,55.5,73z"/>
	<path d="M55.5,72c-0.28,0-0.5,0.22-0.5,0.5c0,0.28,0.22,0.5,0.5,0.5s0.5-0.22,0.5-0.5C56,72.22,55.78,72,55.5,72L55.5,72z"/>
</g>
</svg>
